<svg width="27" height="27" viewBox="0 0 27 27" fill="none" xmlns="http://www.w3.org/2000/svg">
<path d="M3 12V24H24V12H3ZM3 9H24V3H3V9ZM13.5 22.5C12.675 22.5 11.9688 22.2062 11.3813 21.6187C10.7938 21.0312 10.5 20.325 10.5 19.5C10.5 18.825 10.6875 18.1063 11.0625 17.3438C11.4375 16.5812 12.25 15.3 13.5 13.5C14.75 15.3 15.5625 16.5812 15.9375 17.3438C16.3125 18.1063 16.5 18.825 16.5 19.5C16.5 20.325 16.2062 21.0312 15.6187 21.6187C15.0312 22.2062 14.325 22.5 13.5 22.5ZM21 7.5C21.425 7.5 21.7812 7.35625 22.0688 7.06875C22.3563 6.78125 22.5 6.425 22.5 6C22.5 5.575 22.3563 5.21875 22.0688 4.93125C21.7812 4.64375 21.425 4.5 21 4.5C20.575 4.5 20.2188 4.64375 19.9312 4.93125C19.6437 5.21875 19.5 5.575 19.5 6C19.5 6.425 19.6437 6.78125 19.9312 7.06875C20.2188 7.35625 20.575 7.5 21 7.5ZM3 27C2.175 27 1.46875 26.7062 0.88125 26.1187C0.29375 25.5312 0 24.825 0 24V3C0 2.175 0.29375 1.46875 0.88125 0.88125C1.46875 0.29375 2.175 0 3 0H24C24.825 0 25.5312 0.29375 26.1187 0.88125C26.7062 1.46875 27 2.175 27 3V24C27 24.825 26.7062 25.5312 26.1187 26.1187C25.5312 26.7062 24.825 27 24 27H3ZM3 9V3V9Z" fill="#004AC6"/>
</svg>
