<svg width="27" height="27" viewBox="0 0 27 27" fill="none" xmlns="http://www.w3.org/2000/svg">
<path d="M19.5 6C19.925 6 20.2812 5.85625 20.5688 5.56875C20.8563 5.28125 21 4.925 21 4.5C21 4.075 20.8563 3.71875 20.5688 3.43125C20.2812 3.14375 19.925 3 19.5 3C19.075 3 18.7188 3.14375 18.4312 3.43125C18.1437 3.71875 18 4.075 18 4.5C18 4.925 18.1437 5.28125 18.4312 5.56875C18.7188 5.85625 19.075 6 19.5 6ZM13.5 6C13.925 6 14.2812 5.85625 14.5688 5.56875C14.8563 5.28125 15 4.925 15 4.5C15 4.075 14.8563 3.71875 14.5688 3.43125C14.2812 3.14375 13.925 3 13.5 3C13.075 3 12.7188 3.14375 12.4312 3.43125C12.1437 3.71875 12 4.075 12 4.5C12 4.925 12.1437 5.28125 12.4312 5.56875C12.7188 5.85625 13.075 6 13.5 6ZM7.5 6C7.925 6 8.28125 5.85625 8.56875 5.56875C8.85625 5.28125 9 4.925 9 4.5C9 4.075 8.85625 3.71875 8.56875 3.43125C8.28125 3.14375 7.925 3 7.5 3C7.075 3 6.71875 3.14375 6.43125 3.43125C6.14375 3.71875 6 4.075 6 4.5C6 4.925 6.14375 5.28125 6.43125 5.56875C6.71875 5.85625 7.075 6 7.5 6ZM3 10.5V24H24V10.5H3ZM10.5 16.5H16.5V13.5H10.5V16.5ZM3 27C2.175 27 1.46875 26.7062 0.88125 26.1187C0.29375 25.5312 0 24.825 0 24V3C0 2.175 0.29375 1.46875 0.88125 0.88125C1.46875 0.29375 2.175 0 3 0H24C24.825 0 25.5312 0.29375 26.1187 0.88125C26.7062 1.46875 27 2.175 27 3V24C27 24.825 26.7062 25.5312 26.1187 26.1187C25.5312 26.7062 24.825 27 24 27H3Z" fill="#004AC6"/>
</svg>
