<svg width="30" height="24" viewBox="0 0 30 24" fill="none" xmlns="http://www.w3.org/2000/svg">
<path d="M3 24C2.175 24 1.46875 23.7062 0.88125 23.1187C0.29375 22.5312 0 21.825 0 21V3C0 2.175 0.29375 1.46875 0.88125 0.88125C1.46875 0.29375 2.175 0 3 0H27C27.825 0 28.5312 0.29375 29.1187 0.88125C29.7062 1.46875 30 2.175 30 3V21C30 21.825 29.7062 22.5312 29.1187 23.1187C28.5312 23.7062 27.825 24 27 24H3ZM3 21H18V3H3V21ZM21 21H27V3H21V21ZM22.5 7.5H25.5V4.5H22.5V7.5ZM24 13.5C24.425 13.5 24.7812 13.3563 25.0688 13.0688C25.3563 12.7812 25.5 12.425 25.5 12C25.5 11.575 25.3563 11.2188 25.0688 10.9312C24.7812 10.6437 24.425 10.5 24 10.5C23.575 10.5 23.2188 10.6437 22.9312 10.9312C22.6437 11.2188 22.5 11.575 22.5 12C22.5 12.425 22.6437 12.7812 22.9312 13.0688C23.2188 13.3563 23.575 13.5 24 13.5ZM24 19.5C24.425 19.5 24.7812 19.3563 25.0688 19.0688C25.3563 18.7812 25.5 18.425 25.5 18C25.5 17.575 25.3563 17.2188 25.0688 16.9312C24.7812 16.6437 24.425 16.5 24 16.5C23.575 16.5 23.2188 16.6437 22.9312 16.9312C22.6437 17.2188 22.5 17.575 22.5 18C22.5 18.425 22.6437 18.7812 22.9312 19.0688C23.2188 19.3563 23.575 19.5 24 19.5ZM12.375 18C11.775 18 11.2563 17.8875 10.8188 17.6625C10.3813 17.4375 10 17.225 9.675 17.025C9.425 16.85 9.225 16.7188 9.075 16.6313C8.925 16.5438 8.775 16.5 8.625 16.5C8.35 16.5 8.075 16.6125 7.8 16.8375C7.525 17.0625 7.325 17.25 7.2 17.4L5.0625 15.3C5.3375 15 5.78125 14.625 6.39375 14.175C7.00625 13.725 7.75 13.5 8.625 13.5C9.225 13.5 9.74375 13.6187 10.1812 13.8562C10.6187 14.0938 11 14.3125 11.325 14.5125C11.55 14.6625 11.75 14.7812 11.925 14.8687C12.1 14.9562 12.25 15 12.375 15C12.65 15 12.925 14.8875 13.2 14.6625C13.475 14.4375 13.675 14.25 13.8 14.1L15.9375 16.2C15.6625 16.5 15.2188 16.875 14.6062 17.325C13.9937 17.775 13.25 18 12.375 18ZM12.375 10.5C11.775 10.5 11.2563 10.3875 10.8188 10.1625C10.3813 9.9375 10 9.725 9.675 9.525C9.425 9.35 9.225 9.21875 9.075 9.13125C8.925 9.04375 8.775 9 8.625 9C8.35 9 8.075 9.1125 7.8 9.3375C7.525 9.5625 7.325 9.75 7.2 9.9L5.0625 7.8C5.3375 7.5 5.78125 7.125 6.39375 6.675C7.00625 6.225 7.75 6 8.625 6C9.225 6 9.74375 6.11875 10.1812 6.35625C10.6187 6.59375 11 6.8125 11.325 7.0125C11.55 7.1625 11.75 7.28125 11.925 7.36875C12.1 7.45625 12.25 7.5 12.375 7.5C12.65 7.5 12.925 7.3875 13.2 7.1625C13.475 6.9375 13.675 6.75 13.8 6.6L15.9375 8.7C15.6625 9 15.2188 9.375 14.6062 9.825C13.9937 10.275 13.25 10.5 12.375 10.5ZM21 21V3V21Z" fill="#004AC6"/>
</svg>
