<svg width="42" height="42" viewBox="0 0 42 42" fill="none" xmlns="http://www.w3.org/2000/svg">
<path d="M18.0761 30.7262L32.6001 16.2022L29.037 12.6109L18.0761 23.5717L12.7153 18.2109L9.1522 21.8022L18.0761 30.7262ZM20.9609 41.9218C18.0435 41.9218 15.3117 41.3725 12.7656 40.2738C10.2195 39.1751 8.00466 37.6841 6.12121 35.8006C4.23776 33.9172 2.7467 31.7024 1.64802 29.1562C0.54934 26.6101 0 23.8783 0 20.9609C0 18.0435 0.54934 15.3117 1.64802 12.7656C2.7467 10.2195 4.23776 8.00466 6.12121 6.12121C8.00466 4.23776 10.2195 2.7467 12.7656 1.64802C15.3117 0.549339 18.0435 0 20.9609 0C23.8783 0 26.6101 0.549339 29.1562 1.64802C31.7024 2.7467 33.9172 4.23776 35.8006 6.12121C37.6841 8.00466 39.1751 10.2195 40.2738 12.7656C41.3725 15.3117 41.9218 18.0435 41.9218 20.9609C41.9218 23.8783 41.3725 26.6101 40.2738 29.1562C39.1751 31.7024 37.6841 33.9172 35.8006 35.8006C33.9172 37.6841 31.7024 39.1751 29.1562 40.2738C26.6101 41.3725 23.8783 41.9218 20.9609 41.9218ZM20.9609 36.6218C25.3522 36.6218 29.0602 35.1095 32.0848 32.0848C35.1095 29.0602 36.6218 25.3522 36.6218 20.9609C36.6218 16.5696 35.1095 12.8617 32.0848 9.83702C29.0602 6.81238 25.3522 5.30007 20.9609 5.30007C16.5696 5.30007 12.8617 6.81238 9.83702 9.83702C6.81238 12.8617 5.30007 16.5696 5.30007 20.9609C5.30007 25.3522 6.81238 29.0602 9.83702 32.0848C12.8617 35.1095 16.5696 36.6218 20.9609 36.6218Z" fill="#00614C"/>
</svg>
