<svg width="23" height="27" viewBox="0 0 23 27" fill="none" xmlns="http://www.w3.org/2000/svg">
<path d="M2.24995 15.1586C2.24995 16.6701 2.61101 18.0769 3.33314 19.3788C4.05527 20.6807 5.04808 21.7307 6.31156 22.5288C6.20001 22.3172 6.1202 22.1062 6.07212 21.8956C6.02404 21.685 6 21.4643 6 21.2336C6 20.5393 6.13317 19.8855 6.39952 19.272C6.66586 18.6586 7.04807 18.1028 7.54614 17.6047L11.2499 13.9615L14.9682 17.6047C15.4662 18.1028 15.8461 18.6586 16.1076 19.272C16.3691 19.8855 16.4999 20.5393 16.4999 21.2336C16.4999 21.4643 16.4758 21.685 16.4278 21.8956C16.3797 22.1062 16.2999 22.3172 16.1883 22.5288C17.4518 21.7307 18.4446 20.6807 19.1667 19.3788C19.8889 18.0769 20.2499 16.6701 20.2499 15.1586C20.2499 13.9086 20.0187 12.7273 19.5562 11.6148C19.0937 10.5023 18.4249 9.50856 17.5499 8.63356C17.0499 8.95856 16.5249 9.2023 15.9749 9.36481C15.4249 9.52731 14.8624 9.60856 14.2874 9.60856C12.7278 9.60856 11.3793 9.09606 10.2418 8.07106C9.10427 7.04606 8.45283 5.77394 8.28745 4.25471C7.31245 5.07009 6.44994 5.92153 5.69994 6.80903C4.94994 7.69653 4.3187 8.60134 3.8062 9.52346C3.29369 10.4456 2.9062 11.3816 2.6437 12.3316C2.3812 13.2816 2.24995 14.2239 2.24995 15.1586ZM11.2499 17.1086L9.11244 19.2086C8.83745 19.4836 8.62494 19.7961 8.47495 20.1461C8.32495 20.4961 8.24994 20.8586 8.24994 21.2336C8.24994 22.0336 8.5437 22.7211 9.1312 23.2961C9.71869 23.8711 10.4249 24.1586 11.2499 24.1586C12.0749 24.1586 12.7812 23.8711 13.3687 23.2961C13.9562 22.7211 14.2499 22.0336 14.2499 21.2336C14.2499 20.8336 14.1749 20.4648 14.0249 20.1273C13.8749 19.7898 13.6624 19.4836 13.3874 19.2086L11.2499 17.1086ZM10.4999 0V3.60856C10.4999 4.67011 10.8658 5.56051 11.5975 6.27975C12.3292 6.99899 13.2259 7.35861 14.2874 7.35861C14.7471 7.35861 15.185 7.27207 15.6014 7.099C16.0177 6.92592 16.4 6.67111 16.748 6.33458L17.4086 5.66824C18.9894 6.67978 20.2331 8.02929 21.1398 9.71678C22.0465 11.4043 22.4999 13.2182 22.4999 15.1586C22.4999 18.297 21.4095 20.9566 19.2288 23.1374C17.048 25.3181 14.3884 26.4085 11.2499 26.4085C8.1115 26.4085 5.4519 25.3181 3.27114 23.1374C1.09038 20.9566 0 18.297 0 15.1586C0 12.2605 0.944221 9.47206 2.83266 6.79323C4.7211 4.1144 7.27685 1.84999 10.4999 0Z" fill="#004AC6"/>
</svg>
