<svg width="25" height="25" viewBox="0 0 25 25" fill="none" xmlns="http://www.w3.org/2000/svg">
<path d="M10.75 25C9.6875 25 8.88021 24.6823 8.32812 24.0469C7.77604 23.4115 7.5 22.6875 7.5 21.875C7.5 21.3333 7.61979 20.8073 7.85938 20.2969C8.09896 19.7865 8.46875 19.3646 8.96875 19.0312C9.42708 18.7396 9.79688 18.3646 10.0781 17.9062C10.3594 17.4479 10.5521 16.9583 10.6562 16.4375C10.5312 16.375 10.4062 16.3125 10.2812 16.25C10.1562 16.1875 10.0417 16.1146 9.9375 16.0312L7.0625 17.0625C6.70833 17.1875 6.36458 17.2917 6.03125 17.375C5.69792 17.4583 5.35417 17.5 5 17.5C3.6875 17.5 2.52604 16.9271 1.51562 15.7812C0.505208 14.6354 0 12.9583 0 10.75C0 9.6875 0.317708 8.88021 0.953125 8.32812C1.58854 7.77604 2.30208 7.5 3.09375 7.5C3.63542 7.5 4.16667 7.61979 4.6875 7.85938C5.20833 8.09896 5.63542 8.46875 5.96875 8.96875C6.26042 9.42708 6.63542 9.79688 7.09375 10.0781C7.55208 10.3594 8.04167 10.5521 8.5625 10.6562C8.625 10.5312 8.6875 10.4062 8.75 10.2812C8.8125 10.1562 8.88542 10.0417 8.96875 9.9375L7.9375 7.0625C7.8125 6.70833 7.70833 6.36458 7.625 6.03125C7.54167 5.69792 7.5 5.36458 7.5 5.03125C7.5 3.69792 8.07292 2.52604 9.21875 1.51562C10.3646 0.505208 12.0417 0 14.25 0C15.3125 0 16.1198 0.317708 16.6719 0.953125C17.224 1.58854 17.5 2.30208 17.5 3.09375C17.5 3.63542 17.3802 4.16667 17.1406 4.6875C16.901 5.20833 16.5312 5.63542 16.0312 5.96875C15.5729 6.26042 15.2031 6.63542 14.9219 7.09375C14.6406 7.55208 14.4479 8.04167 14.3438 8.5625C14.4688 8.625 14.5938 8.6875 14.7188 8.75C14.8438 8.8125 14.9583 8.88542 15.0625 8.96875L17.9375 7.90625C18.2917 7.78125 18.6302 7.68229 18.9531 7.60938C19.276 7.53646 19.6146 7.5 19.9688 7.5C21.6562 7.5 22.9167 8.19792 23.75 9.59375C24.5833 10.9896 25 12.5417 25 14.25C25 15.3125 24.6667 16.1198 24 16.6719C23.3333 17.224 22.5938 17.5 21.7812 17.5C21.2604 17.5 20.7552 17.3802 20.2656 17.1406C19.776 16.901 19.3646 16.5312 19.0312 16.0312C18.7396 15.5729 18.3646 15.2031 17.9062 14.9219C17.4479 14.6406 16.9583 14.4479 16.4375 14.3438C16.375 14.4688 16.3125 14.5938 16.25 14.7188C16.1875 14.8438 16.1146 14.9583 16.0312 15.0625L17.0625 17.9375C17.1875 18.2708 17.2917 18.5885 17.375 18.8906C17.4583 19.1927 17.5 19.5104 17.5 19.8438C17.5208 21.1979 16.9583 22.3958 15.8125 23.4375C14.6667 24.4792 12.9792 25 10.75 25ZM12.5 14.375C13.0208 14.375 13.4635 14.1927 13.8281 13.8281C14.1927 13.4635 14.375 13.0208 14.375 12.5C14.375 11.9792 14.1927 11.5365 13.8281 11.1719C13.4635 10.8073 13.0208 10.625 12.5 10.625C11.9792 10.625 11.5365 10.8073 11.1719 11.1719C10.8073 11.5365 10.625 11.9792 10.625 12.5C10.625 13.0208 10.8073 13.4635 11.1719 13.8281C11.5365 14.1927 11.9792 14.375 12.5 14.375ZM11.0625 8.375C11.1875 8.33333 11.3177 8.29688 11.4531 8.26562C11.5885 8.23438 11.7188 8.20833 11.8438 8.1875C12.0104 7.3125 12.3281 6.5 12.7969 5.75C13.2656 5 13.8854 4.375 14.6562 3.875C14.7604 3.79167 14.8438 3.6875 14.9062 3.5625C14.9688 3.4375 15 3.28125 15 3.09375C15 2.92708 14.9375 2.78646 14.8125 2.67188C14.6875 2.55729 14.5 2.5 14.25 2.5C13.4583 2.5 12.5625 2.67188 11.5625 3.01562C10.5625 3.35938 10.0417 4.03125 10 5.03125C10 5.21875 10.026 5.39583 10.0781 5.5625C10.1302 5.72917 10.1771 5.88542 10.2188 6.03125L11.0625 8.375ZM5 15C5.29167 15 5.63542 14.9271 6.03125 14.7812L8.375 13.9375C8.33333 13.8125 8.29688 13.6823 8.26562 13.5469C8.23438 13.4115 8.20833 13.2812 8.1875 13.1562C7.3125 12.9896 6.5 12.6719 5.75 12.2031C5 11.7344 4.375 11.1146 3.875 10.3438C3.79167 10.2396 3.68229 10.1562 3.54688 10.0938C3.41146 10.0312 3.26042 10 3.09375 10C2.90625 10 2.76042 10.0625 2.65625 10.1875C2.55208 10.3125 2.5 10.5 2.5 10.75C2.5 11.875 2.71354 12.8646 3.14062 13.7188C3.56771 14.5729 4.1875 15 5 15ZM10.75 22.5C11.7292 22.5 12.6927 22.3021 13.6406 21.9062C14.5885 21.5104 15.0417 20.8229 15 19.8438C15 19.6771 14.974 19.5208 14.9219 19.375C14.8698 19.2292 14.8229 19.0938 14.7812 18.9688L13.9375 16.625C13.8125 16.6667 13.6823 16.7031 13.5469 16.7344C13.4115 16.7656 13.2812 16.7917 13.1562 16.8125C12.9896 17.6875 12.6719 18.5 12.2031 19.25C11.7344 20 11.1146 20.625 10.3438 21.125C10.2396 21.2083 10.151 21.3177 10.0781 21.4531C10.0052 21.5885 9.97917 21.7292 10 21.875C10.0208 22.0417 10.0833 22.1875 10.1875 22.3125C10.2917 22.4375 10.4792 22.5 10.75 22.5ZM21.7812 15C21.9688 15 22.1354 14.9479 22.2812 14.8438C22.4271 14.7396 22.5 14.5417 22.5 14.25C22.5 13.4583 22.3333 12.5573 22 11.5469C21.6667 10.5365 20.9896 10.0208 19.9688 10C19.7812 10 19.6042 10.0208 19.4375 10.0625C19.2708 10.1042 19.1146 10.1458 18.9688 10.1875L16.625 11.0625C16.6667 11.1875 16.7031 11.3177 16.7344 11.4531C16.7656 11.5885 16.7917 11.7188 16.8125 11.8438C17.6875 12.0104 18.5 12.3281 19.25 12.7969C20 13.2656 20.625 13.8854 21.125 14.6562C21.1875 14.7604 21.2812 14.8438 21.4062 14.9062C21.5312 14.9688 21.6562 15 21.7812 15Z" fill="#004AC6"/>
</svg>
