<svg width="23" height="27" viewBox="0 0 23 27" fill="none" xmlns="http://www.w3.org/2000/svg">
<path d="M2.25 15.158c0 1.512 0.361 2.918 1.083 4.22 0.722 1.302 1.715 2.352 2.978 3.15-0.111-0.211-0.191-0.422-0.239-0.633-0.048-0.21-0.072-0.431-0.072-0.662 0-0.694 0.133-1.348 0.4-1.961 0.266-0.614 0.648-1.169 1.146-1.667l3.704-3.643 3.718 3.643c0.498 0.498 0.878 1.054 1.139 1.667 0.262 0.613 0.392 1.267 0.392 1.961 0 0.231-0.024 0.452-0.072 0.662-0.048 0.211-0.128 0.422-0.239 0.633 1.263-0.798 2.256-1.848 2.978-3.15 0.722-1.302 1.083-2.708 1.083-4.22 0-1.25-0.231-2.431-0.694-3.544-0.462-1.112-1.131-2.106-2.006-2.981-0.5 0.325-1.025 0.569-1.575 0.731-0.55 0.163-1.113 0.244-1.688 0.244-1.56 0-2.908-0.513-4.046-1.538-1.137-1.025-1.789-2.297-1.954-3.816-0.975 0.815-1.838 1.667-2.588 2.554-0.75 0.888-1.381 1.792-1.894 2.714-0.512 0.922-0.9 1.858-1.162 2.808-0.263 0.95-0.394 1.892-0.394 2.827zm9 1.95l-2.138 2.1c-0.275 0.275-0.488 0.588-0.638 0.938-0.15 0.35-0.225 0.713-0.225 1.087 0 0.8 0.294 1.488 0.881 2.063 0.588 0.575 1.294 0.863 2.119 0.863 0.825 0 1.531-0.288 2.119-0.863 0.588-0.575 0.881-1.263 0.881-2.063 0-0.4-0.075-0.769-0.225-1.106-0.15-0.338-0.363-0.644-0.638-0.919l-2.138-2.1zm-0.75-17.108v3.609c0 1.062 0.366 1.952 1.098 2.671 0.732 0.719 1.628 1.079 2.69 1.079 0.46 0 0.898-0.087 1.314-0.26 0.416-0.173 0.799-0.428 1.147-0.764l0.66-0.667c1.581 1.012 2.825 2.361 3.731 4.049 0.907 1.687 1.36 3.501 1.36 5.442 0 3.138-1.09 5.798-3.271 7.979-2.181 2.181-4.84 3.271-7.979 3.271-3.138 0-5.798-1.09-7.979-3.271C1.09 21.957 0 19.297 0 16.158c0-2.898 0.944-5.686 2.833-8.365 1.888-2.679 4.444-4.943 7.667-6.793z" fill="#004AC6"/>
</svg>
