<svg width="139" height="33" viewBox="0 0 139 33" fill="none" xmlns="http://www.w3.org/2000/svg">
<g clip-path="url(#clip0_1918_1518)">
<path d="M90.0884 1.76772H95.8127V2.64622H91.1094V5.15985H95.3828V6.00487H91.1094V8.79706H95.9492V9.71975H90.0884V1.76772Z" fill="#292930"/>
<path d="M97.4779 1.76772H98.5548L102.249 7.29584C102.522 7.70697 102.839 8.31897 102.839 8.31897H102.862V1.76772H103.815V9.71975H102.772L99.0543 4.18091C98.7936 3.79121 98.4538 3.19126 98.4538 3.19126H98.4306V9.71975H97.4779V1.76772Z" fill="#292930"/>
<path d="M105.671 1.76772H111.395V2.64622H106.692V5.15985H110.966V6.00487H106.692V8.79706H111.532V9.71975H105.671V1.76772Z" fill="#292930"/>
<path d="M113.059 1.76772H116.845C118.274 1.76772 119.238 2.64622 119.238 3.9479C119.238 4.91612 118.807 5.60446 117.832 5.91649V5.94997C118.659 6.23923 118.92 6.79499 119.001 7.97346C119.091 9.25238 119.227 9.57512 119.375 9.67556V9.71975H118.276C118.105 9.57512 118.071 9.27514 117.981 7.93998C117.902 6.77222 117.425 6.36109 116.338 6.36109H114.082V9.71975H113.061V1.76772ZM114.08 5.54955H116.482C117.617 5.54955 118.183 4.99379 118.183 4.09253C118.183 3.1243 117.73 2.6355 116.54 2.6355H114.08V5.54955Z" fill="#292930"/>
<path d="M126.865 8.67519H126.842C126.252 9.48673 125.38 9.88714 124.314 9.88714C122.036 9.88714 120.506 8.18505 120.506 5.77185C120.506 3.35865 121.854 1.60165 124.405 1.60165C126.288 1.60165 127.444 2.60202 127.704 4.15948H126.651C126.424 3.10287 125.664 2.46944 124.384 2.46944C122.435 2.46944 121.55 3.9037 121.55 5.77319C121.55 7.64268 122.706 9.0207 124.349 9.0207C125.993 9.0207 126.798 7.90918 126.798 6.57402V6.38519H124.36V5.51741H127.818V9.72108H127.16L126.865 8.67519Z" fill="#292930"/>
<path d="M129.582 1.76771H130.603V9.71975H129.582V1.76771ZM130.251 0H131.385L130.456 1.34587H129.674L130.251 0Z" fill="#292930"/>
<path d="M134.818 1.76772H135.963L138.955 9.71975H137.844L136.983 7.29584H133.752L132.88 9.71975H131.837L134.818 1.76772ZM134.047 6.4843H136.699L135.769 3.81532C135.611 3.37071 135.406 2.69175 135.406 2.69175H135.383C135.383 2.69175 135.167 3.35866 135.009 3.81532L134.046 6.4843H134.047Z" fill="#292930"/>
<path fill-rule="evenodd" clip-rule="evenodd" d="M13.545 19.2788L20.4281 0.107134L20.4663 0H12.4381L0 33H8.81981L10.4031 28.5646H13.0086L16.4331 19.2734L13.545 19.2788Z" fill="#004AC6"/>
<path fill-rule="evenodd" clip-rule="evenodd" d="M25.1191 11.7673L24.928 11.1808L24.9349 11.1701H24.9253L24.9062 11.1125L24.752 10.6357L23.9767 8.24263L20.3694 14.6372L24.034 14.6305L13.0086 28.5646H22.1614L23.6328 33H31.9994L25.1191 11.7673Z" fill="#004AC6"/>
<path d="M35.0131 6.6691H41.1304V16.4652H41.2424C42.6318 14.6613 44.2833 13.594 46.9489 13.594C51.1513 13.594 53.6286 16.5402 53.6286 20.7372V33H47.5112V21.9531C47.5112 19.9644 46.4985 18.6012 44.5071 18.6012C42.5158 18.6012 41.1291 20.2577 41.1291 22.5785V33H35.0117V6.6691H35.0131Z" fill="#004AC6"/>
<path d="M55.5285 23.0205C55.5285 17.349 59.6572 13.0396 65.8142 13.0396C71.9711 13.0396 76.0603 17.349 76.0603 23.0205C76.0603 28.6919 72.0053 33 65.8142 33C59.6231 33 55.5285 28.6919 55.5285 23.0205ZM69.8679 23.0205C69.8679 19.5962 68.4416 17.2754 65.776 17.2754C63.1104 17.2754 61.7223 19.5962 61.7223 23.0205C61.7223 26.4447 63.1117 28.728 65.776 28.728C68.4402 28.728 69.8679 26.4461 69.8679 23.0205Z" fill="#004AC6"/>
<path d="M78.1103 14.1457H83.9656V17.0919H84.0775C85.4274 14.8461 87.0052 13.8511 89.3309 13.8511C89.8933 13.8511 90.27 13.8886 90.532 13.9984V19.1542H90.3832C86.6285 18.6387 84.2263 20.4425 84.2263 24.5297V32.9987H78.1089V14.1457H78.1103Z" fill="#004AC6"/>
<path d="M92.477 14.1457H98.3323V17.0919H98.4442C99.794 14.8461 101.372 13.8511 103.698 13.8511C104.26 13.8511 104.637 13.8886 104.899 13.9984V19.1542H104.75C100.995 18.6387 98.5929 20.4425 98.5929 24.5297V32.9987H92.4756V14.1457H92.477Z" fill="#004AC6"/>
<path d="M105.382 27.2549C105.382 23.0928 108.76 21.842 112.74 21.3264C116.343 20.8845 117.617 20.5162 117.617 19.2279C117.617 18.0119 116.829 17.2017 114.989 17.2017C113.037 17.2017 112.062 18.0494 111.876 19.6323H106.244C106.393 16.1344 109.135 13.1507 114.952 13.1507C117.84 13.1507 119.794 13.6663 121.183 14.6975C122.834 15.8759 123.622 17.7173 123.622 20.0743V29.5744C123.622 31.0836 123.773 31.9313 124.298 32.2621V32.5206H118.369C118.068 32.1148 117.881 31.3796 117.73 30.4221H117.656C116.529 32.005 114.84 33 111.95 33C108.121 33 105.382 30.9738 105.382 27.2563V27.2549ZM117.769 25.7818V23.536C116.979 23.9418 115.855 24.2351 114.617 24.531C112.251 25.0453 111.275 25.6345 111.275 27.0715C111.275 28.5807 112.4 29.1699 113.903 29.1699C116.192 29.1699 117.769 27.808 117.769 25.7818Z" fill="#004AC6"/>
<path d="M126.577 14.1457H132.432V17.0919H132.544C133.894 14.8461 135.472 13.8511 137.798 13.8511C138.36 13.8511 138.737 13.8886 138.999 13.9984V19.1542H138.85C135.095 18.6387 132.693 20.4425 132.693 24.5297V32.9987H126.576V14.1457H126.577Z" fill="#004AC6"/>
</g>
<defs>
<clipPath id="clip0_1918_1518">
<rect width="139" height="33" fill="white"/>
</clipPath>
</defs>
</svg>
