<svg xmlns="http://www.w3.org/2000/svg" viewBox="0 0 139 33" width="139" height="33" fill="none" aria-hidden="true">
  <g transform="translate(90.08841685906009 0)">
    <path transform="translate(0 1.7677136659622192) scale(0.1364872740988516 0.13391770028473754)" fill="#292930" d="M0 0l41.94 0 0 6.56-34.45996 0 0 18.77 31.31 0 0 6.31-31.31 0 0 20.85 35.45996 0 0 6.89-42.94 0 0-59.38z"/>
    <path transform="translate(7.389428809732635 1.7677136659622192) scale(0.13491806559152633 0.13391770028473754)" fill="#292930" d="M0 0l7.89001 0 27.07001 41.28c2 3.07 4.31995 7.64 4.31995 7.64l0.17004 0 0-48.92 6.97998 0 0 59.38-7.64001 0-27.23999-41.36c-1.91-2.91-4.39996-7.39-4.39997-7.39l-0.17004 0 0 48.75-6.97998 0 0-59.38z"/>
    <path transform="translate(15.582756236643036 1.7677136659622192) scale(0.1364872740988516 0.13391770028473754)" fill="#292930" d="M0 0l41.94 0 0 6.56-34.45996 0 0 18.77 31.31 0 0 6.31-31.31 0 0 20.85 35.45996 0 0 6.89-42.94 0 0-59.38z"/>
    <path transform="translate(22.970812038034637 1.7677136659622192) scale(0.13950219420089907 0.13391770028473754)" fill="#292930" d="M0 0l27.74005 0c10.47 0 17.52997 6.56 17.52997 16.28 0 7.23-3.15999 12.37-10.29999 14.7l0 0.25c6.06 2.16 7.97 6.31 8.56 15.11 0.66 9.55 1.65999 11.96 2.73999 12.71l0 0.33-8.04999 0c-1.25-1.08-1.50004-3.32-2.16003-13.29-0.58-8.72-4.06998-11.79-12.03998-11.79l-16.52997 0 0 25.08-7.48004 0 0-59.38-0.01001 0z m7.48004 28.24l17.59998 0c8.31 0 12.46002-4.15 12.46002-10.88 0-7.23-3.32004-10.88-12.04004-10.88l-18.01996 0 0 21.76z"/>
    <path transform="translate(30.41755695685788 1.6016557216644287) scale(0.13945498698937808 0.1339177158935902)" fill="#292930" d="M46.59003 52.82l-0.16999 0c-4.32 6.06-10.71002 9.05-18.52002 9.05-16.69 0-27.90002-12.71-27.90002-30.73 0-18.02 9.88001-31.14 28.57001-31.14 13.79 0 22.26004 7.47 24.17004 19.1l-7.72003 0c-1.66-7.89-7.22998-12.62-16.60999-12.62-14.28 0-20.76001 10.71-20.76001 24.67 0 13.96 8.47001 24.25 20.51001 24.25 12.04 0 17.94-8.3 17.94001-18.27l0-1.41-17.85999 0 0-6.48 25.32996 0 0 31.39-4.82001 0-2.15997-7.81z"/>
    <path transform="translate(39.49395771369382 0) scale(0.13648750744111424 0.133917698948204)" fill="#292930" d="M0 13.2l7.48004 0 0 59.38-7.48004 0 0-59.38z m4.90002-13.2l8.31 0-6.81 10.05-5.72998 0 4.22998-10.05z"/>
    <path transform="translate(41.748737529367645 1.7677136659622192) scale(0.1374360699753983 0.13391770028473754)" fill="#292930" d="M0 0l8.38995 0 21.92004 59.38-8.14001 0-6.31-18.1-23.66998 0-6.39002 18.1-7.64001 0 21.84003-59.38z m-5.65003 35.22l19.43 0-6.81-19.93c-1.16-3.32-2.65997-8.39-2.65998-8.39l-0.17004 0c0 0-1.57999 4.98-2.73999 8.39l-7.06 19.93 0.01001 0z"/>
  </g>
  <g transform="translate(0 0)">
    <path transform="translate(0 0) scale(0.13559206725904385 0.13391770148526905)" fill="#004ac6" fill-rule="evenodd" d="M99.24 143.96001l50.43-143.16001 0.28-0.8-58.82 0-91.13 246.42 64.62 0 11.6-33.12 19.09 0 25.09-69.38-21.16 0.04001z"/>
    <path transform="translate(13.008602142333984 8.242633819580078) scale(0.13754500618900994 0.13775519849249548)" fill="#004ac6" fill-rule="evenodd" d="M88.73 26.32l-1.4-4.38 0.05-0.08-0.07 0-0.14-0.43-1.12999-3.56-5.68001-17.87-26.42999 47.75 26.84999-0.05-80.78 104.05 67.06 0 10.78 33.12 61.3 0-50.41-158.55z"/>
  </g>
  <g transform="translate(35.01171112060547 6.669101715087891)">
    <path transform="translate(0 0) scale(0.13749533953307475 0.13749816336768725)" fill="#004ac6" d="M0.01001 0l44.82001 0 0 73.14999 0.82 0c10.18-13.47 22.28-21.43999 41.81-21.43999 30.79 0 48.94 22 48.94 53.34l0 91.57-44.82 0 0-82.49001c0-14.85-7.42001-25.03-22.01001-25.03-14.59 0-24.75 12.37001-24.75 29.70001l0 77.82-44.82001 0 0-196.62 0.01001 0z"/>
    <path transform="translate(20.51677131652832 6.370465278625488) scale(0.1364873094792649 0.13391769240263202)" fill="#004ac6" d="M0 74.52999c0-42.35 30.25002-74.52999 75.36002-74.52999 45.11 0 75.07 32.17999 75.07 74.52999 0 42.35-29.71 74.52-75.07 74.52-45.36 0-75.36002-32.17-75.36002-74.52z m105.06 0c0-25.57-10.44998-42.89999-29.97998-42.89999-19.53 0-29.70001 17.32999-29.70002 42.89999 0 25.57 10.18001 42.62001 29.70002 42.62001 19.52 0 29.97998-17.04001 29.97998-42.62001z"/>
    <path transform="translate(43.097225189208984 7.182006359100342) scale(0.13665236100782302 0.13391771155114707)" fill="#004ac6" d="M0.00995 2.2l42.90002 0 0 22 0.82001 0c9.89-16.77 21.44999-24.2 38.48999-24.2 4.12 0 6.87999 0.28 8.79999 1.1l0 38.5-1.08997 0c-27.51-3.85-45.11005 9.62-45.11004 40.14l0 63.24001-44.81995 0 0-140.78001 0.00995 0z"/>
    <path transform="translate(57.46387481689453 7.182006359100342) scale(0.13665243444001107 0.13391771155114707)" fill="#004ac6" d="M0.01001 2.2l42.90002 0 0 22 0.82001 0c9.89-16.77 21.44999-24.2 38.48999-24.2 4.12 0 6.87999 0.28 8.79999 1.1l0 38.5-1.09003 0c-27.51-3.85-45.10999 9.62-45.10998 40.14l0 63.24001-44.82001 0 0-140.78001 0.01001 0z"/>
    <path transform="translate(70.37010192871094 6.481616020202637) scale(0.13740936649515934 0.1339267344378595)" fill="#004ac6" d="M0 105.32001c0-31.08 24.75003-40.42001 53.91003-44.27001 26.4-3.3 35.72998-6.05 35.72999-15.67 0-9.08-5.77001-15.13-19.25-15.13-14.3 0-21.45 6.33001-22.81 18.15001l-41.26001 0c1.09-26.12 21.17999-48.40001 63.79998-48.40001 21.16 0 35.47002 3.85 45.65003 11.55 12.1 8.8 17.86999 22.54999 17.86999 40.15l0 70.94c0 11.27 1.11002 17.60001 4.95002 20.07001l0 1.92999-43.44001 0c-2.2-3.03-3.56999-8.52-4.67999-15.67l-0.53998 0c-8.26 11.82001-20.63006 19.25-41.81005 19.25-28.05 0-48.12-15.13-48.12-42.89l0-0.00999z m90.76001-11l0-16.77001c-5.79 3.03-14.02998 5.21999-23.09998 7.43-17.33 3.84-24.47998 8.24-24.47998 18.97 0 11.27 8.24 15.67001 19.25 15.67001 16.77 0 28.32996-10.17001 28.32996-25.3z"/>
    <path transform="translate(91.56385040283203 7.182006359100342) scale(0.13665243444001107 0.13391771155114707)" fill="#004ac6" d="M0.01001 2.2l42.89996 0 0 22 0.82001 0c9.89-16.77 21.44999-24.2 38.48999-24.2 4.12 0 6.88005 0.28 8.80005 1.1l0 38.5-1.09003 0c-27.51-3.85-45.10999 9.62-45.10998 40.14l0 63.24001-44.82001 0 0-140.78001 0.01001 0z"/>
  </g>
</svg>
